<?xml version="1.0" encoding="UTF-8" standalone="no"?>
<!-- Created with Inkscape (http://www.inkscape.org/) -->

<svg
   xmlns:svg="http://www.w3.org/2000/svg"
   xmlns="http://www.w3.org/2000/svg"
   version="1.1"
   width="311.65234"
   height="58.148438"
   id="svg2">
  <defs
     id="defs4" />
  <g
     transform="translate(-7.1576538,-7.8715096)"
     id="layer1">
    <path
       d="M 7.1576538,56.457447 7.2631226,55.367603 C 9.794368,54.94573 11.63421,53.973075 12.782654,52.449635 13.67327,51.32464 14.118582,49.086361 14.118591,45.734791 l 0,-26.542969 c -9e-6,-2.015586 -0.117196,-3.515584 -0.351562,-4.5 C 13.556083,13.684052 13.12249,12.816866 12.466248,12.09026 11.294366,10.777805 9.5599932,9.9340561 7.2631226,9.5590096 l 0,-1.0898438 c 0.890622,0.046923 1.3476528,0.07036 1.3710937,0.070312 l 4.1132817,0.2109375 c 1.335928,0.07036 2.765614,0.1055164 4.289062,0.1054688 2.742173,4.76e-5 5.718733,-0.1405773 8.929688,-0.421875 2.976538,-0.2343268 5.179661,-0.3515142 6.609375,-0.3515625 3.749968,4.83e-5 7.148403,0.5859852 10.195312,1.7578125 3.046834,1.1484829 5.683551,2.8008249 7.910156,4.9570309 2.249953,2.156289 3.984326,4.722693 5.203125,7.699219 1.218698,2.976593 1.828073,6.246121 1.828125,9.808593 -5.2e-5,3.585958 -0.632864,6.902361 -1.898437,9.949219 -1.242237,3.023449 -3.035204,5.61329 -5.378906,7.769531 -2.320356,2.132817 -5.097697,3.77344 -8.332032,4.921875 -3.210971,1.148438 -6.796905,1.722656 -10.757812,1.722657 -1.45315,-1e-6 -3.77346,-0.140626 -6.960938,-0.421875 -2.250017,-0.210938 -4.441421,-0.316406 -6.574218,-0.316407 -1.500012,1e-6 -3.164072,0.04688 -4.992188,0.140625 L 8.0365601,56.42229 c -0.2578151,0 -0.5507836,0.01172 -0.8789063,0.03516 m 15.1875002,-39.375 -0.07031,27.175781 c -1.7e-5,3.023447 0.269514,5.214851 0.808594,6.574219 0.515607,1.265629 1.382793,2.250003 2.601563,2.953125 1.242165,0.67969 2.730445,1.019533 4.464843,1.019531 2.695285,2e-6 5.179658,-0.550779 7.453125,-1.652343 2.273403,-1.124996 4.25387,-2.718744 5.941407,-4.78125 1.710897,-2.085928 3.011677,-4.546863 3.902343,-7.382813 0.890582,-2.835919 1.335894,-5.882791 1.335938,-9.140625 -4.4e-5,-4.289034 -0.796918,-8.13278 -2.390625,-11.53125 -1.570352,-3.398398 -3.773475,-6.058551 -6.609375,-7.980469 -2.812532,-1.945266 -5.953154,-2.9179209 -9.421875,-2.9179679 -2.74221,4.7e-5 -4.769552,0.6211399 -6.082031,1.8632809 -1.289081,1.218794 -1.933611,3.152386 -1.933594,5.800781 M 12.184998,54.664478 c 2.039053,-0.210935 3.878895,-0.316404 5.519531,-0.316406 1.640611,2e-6 3.22264,0.08203 4.746094,0.246094 L 21.079529,53.644947 C 20.376389,53.1762 19.884202,52.730888 19.602966,52.30901 19.34514,51.887139 19.216234,51.336358 19.216248,50.656666 c -0.02345,-0.398431 -0.03517,-0.78515 -0.03516,-1.160156 l 0,-0.597657 0,-32.871093 0,-0.597657 c -1.4e-5,-0.374958 0.01171,-0.761677 0.03516,-1.160156 -1.4e-5,-0.703082 0.105454,-1.230425 0.316406,-1.582031 0.23436,-0.351519 0.749985,-0.820268 1.546875,-1.40625 L 22.94281,9.9105721 c -2.062516,0.1875459 -3.843764,0.2812959 -5.34375,0.2812499 -1.406261,4.6e-5 -3.164072,-0.08198 -5.273437,-0.2460937 l -0.632813,-0.035156 1.863281,1.3710937 c 0.749991,0.515669 1.242178,0.9727 1.476563,1.371094 0.257802,0.375043 0.386708,0.914105 0.386719,1.617187 -1.1e-5,0.234417 -1.1e-5,0.445354 0,0.632813 0.02343,0.187541 0.03515,0.363322 0.03516,0.527343 l 0,0.597657 0,32.871093 0,0.597657 c -10e-6,0.140631 -0.01173,0.304694 -0.03516,0.492187 -1.1e-5,0.187506 -1.1e-5,0.410162 0,0.667969 -1.1e-5,0.726567 -0.105479,1.265629 -0.316407,1.617187 -0.210947,0.328129 -0.726571,0.78516 -1.546875,1.371094 l -1.371093,1.019531 m 23.660156,0.175782 c 2.695279,-0.632811 5.015589,-1.511716 6.960937,-2.636719 1.945273,-1.124995 3.773396,-2.624993 5.484375,-4.5 3.867141,-4.359362 5.800733,-9.527326 5.800782,-15.503906 -4.9e-5,-3.58591 -0.679736,-6.914032 -2.039063,-9.984375 -1.35942,-3.070276 -3.31645,-5.671836 -5.871094,-7.804688 -2.531288,-2.156206 -5.460973,-3.69136 -8.789062,-4.6054685 1.265591,0.6094205 2.449184,1.3008265 3.550781,2.0742185 1.124963,0.750044 2.109337,1.582074 2.953125,2.496094 0.867148,0.914103 1.617147,1.851603 2.25,2.8125 2.695269,4.101597 4.042924,8.976593 4.042969,14.625 -4.5e-5,3.000021 -0.375045,5.871112 -1.125,8.613281 -0.750043,2.742201 -1.828167,5.132823 -3.234375,7.171875 -1.195352,1.75782 -2.578163,3.199224 -4.148438,4.324219 -1.54691,1.101566 -3.49222,2.074221 -5.835937,2.917969"
       id="path3632"
       style="font-size:72px;font-style:normal;font-variant:normal;font-weight:normal;font-stretch:normal;text-align:start;line-height:125%;writing-mode:lr-tb;text-anchor:start;opacity:0.98999999;fill:#000000;fill-opacity:1;stroke:none;font-family:Academy Engraved LET;-inkscape-font-specification:Academy Engraved LET" />
    <path
       d="m 75.895935,53.187916 c -2.882829,2.437501 -5.976576,3.656249 -9.28125,3.65625 -2.648445,-1e-6 -4.769537,-0.679687 -6.363281,-2.039063 -1.570315,-1.382809 -2.355471,-3.187495 -2.355469,-5.414062 -2e-6,-3.164052 1.546872,-5.648425 4.640625,-7.453125 3.09374,-1.804671 7.546861,-2.824202 13.359375,-3.058594 l 0,-0.984375 0,-0.492187 c -2e-5,-1.828105 -0.08205,-3.316384 -0.246094,-4.464844 -0.164082,-1.171851 -0.398456,-2.050756 -0.703125,-2.636719 -0.351581,-0.679661 -0.855486,-1.218723 -1.511718,-1.617187 -0.63283,-0.421847 -1.324235,-0.632785 -2.074219,-0.632813 -1.101577,2.8e-5 -1.968764,0.363309 -2.601563,1.089844 -0.632824,0.703151 -1.031261,1.804713 -1.195312,3.304687 -0.187512,1.476585 -0.492199,2.484397 -0.914063,3.023438 -0.421885,0.515645 -1.148447,0.773458 -2.179687,0.773437 -0.796883,2.1e-5 -1.464851,-0.281229 -2.003906,-0.84375 -0.539069,-0.562478 -0.8086,-1.28904 -0.808594,-2.179687 -6e-6,-1.195288 0.433588,-2.273412 1.300781,-3.234375 0.86718,-0.984348 2.062491,-1.757784 3.585938,-2.320313 1.546863,-0.56247 3.234361,-0.84372 5.0625,-0.84375 2.367169,3e-5 4.441386,0.480498 6.222656,1.441407 1.781226,0.937527 3.105444,2.250025 3.972656,3.9375 0.468724,0.86721 0.796849,1.839866 0.984375,2.917968 0.210911,1.078146 0.316379,2.566425 0.316406,4.464844 l 0,10.125 c -2.7e-5,1.945317 0.281223,3.328128 0.84375,4.148438 0.585909,0.820314 1.675752,1.371095 3.269532,1.652343 l 0,0.949219 -11.320313,0 0,-3.269531 m 0,-1.546875 0,-11.636719 c -2.273455,0.351579 -4.230484,0.937516 -5.871094,1.757813 -1.6172,0.820326 -2.859386,1.863294 -3.726562,3.128906 -0.867197,1.265635 -1.30079,2.660165 -1.300781,4.183594 -9e-6,1.54688 0.457021,2.835942 1.371093,3.867187 0.937489,1.007815 2.109363,1.511721 3.515625,1.511719 1.73436,2e-6 3.738264,-0.937497 6.011719,-2.8125 m 1.195313,3.269531 5.203125,0 -0.808594,-0.632812 c -2.6e-5,2e-6 -0.02346,-0.01172 -0.07031,-0.03516 -0.02346,-0.04687 -0.0469,-0.07031 -0.07031,-0.07031 L 80.888128,53.820727 C 80.536541,53.469168 80.36076,53.023856 80.360784,52.48479 l 0,-0.703125 -0.03516,-0.351563 0,-11.953125 c -2.5e-5,-3.257792 -0.375024,-5.69529 -1.125,-7.3125 -1.05471,-2.156223 -2.707052,-3.539034 -4.957032,-4.148437 1.499981,1.054715 2.378886,2.730494 2.636719,5.027344 0.140604,1.406272 0.210917,3.585957 0.210938,6.539062 l 0,15.328125 m -8.929688,0.949219 c -3.984383,-0.820311 -5.976569,-2.999997 -5.976562,-6.539063 -7e-6,-2.296865 0.925774,-4.265613 2.777343,-5.90625 0.820303,-0.726548 2.402333,-1.652329 4.746094,-2.777343 -2.835948,0.539077 -5.039071,1.277358 -6.609375,2.214843 -2.671879,1.640637 -4.007815,3.808604 -4.007812,6.503907 -3e-6,1.945317 0.703121,3.527347 2.109375,4.746093 1.42968,1.195314 3.269522,1.79297 5.519531,1.792969 0.539051,1e-6 1.019519,-0.01172 1.441406,-0.03516 m 0,-27.773438 c -1.640635,0.421903 -2.964853,1.113309 -3.972656,2.074219 -0.984382,0.937525 -1.476569,1.992212 -1.476563,3.164063 -6e-6,0.445335 0.105462,0.796897 0.316407,1.054687 0.21093,0.257834 0.49218,0.38674 0.84375,0.386719 0.328116,2.1e-5 0.57421,-0.09373 0.738281,-0.28125 0.164054,-0.210916 0.304678,-0.621071 0.421875,-1.230469 0.257803,-1.312475 0.585928,-2.296849 0.984375,-2.953125 0.421864,-0.679661 1.136707,-1.417941 2.144531,-2.214844"
       id="path3634"
       style="font-size:72px;font-style:normal;font-variant:normal;font-weight:normal;font-stretch:normal;text-align:start;line-height:125%;writing-mode:lr-tb;text-anchor:start;opacity:0.98999999;fill:#000000;fill-opacity:1;stroke:none;font-family:Academy Engraved LET;-inkscape-font-specification:Academy Engraved LET" />
    <path
       d="m 88.38031,56.457447 0,-0.949219 c 1.593747,-0.281248 2.683589,-0.82031 3.269531,-1.617187 0.585932,-0.820309 0.878901,-2.214839 0.878907,-4.183594 l 0,-14.765625 c -6e-6,-1.968726 -0.304694,-3.363256 -0.914063,-4.183594 -0.585942,-0.843723 -1.664066,-1.382785 -3.234375,-1.617187 l 0,-0.773438 11.32031,-1.300781 0,22.640625 c -1e-5,1.945317 0.28124,3.328128 0.84375,4.148438 0.58593,0.820314 1.67577,1.371095 3.26953,1.652343 l 0,0.949219 -15.43359,0 m 3.199219,-38.988281 c -5e-6,-1.171835 0.398432,-2.167928 1.195312,-2.988281 0.796868,-0.82027 1.792959,-1.230426 2.988279,-1.230469 1.1953,4.3e-5 2.1914,0.410199 2.98828,1.230469 0.79687,0.820353 1.1953,1.816446 1.19532,2.988281 -2e-5,1.19535 -0.39845,2.191443 -1.19532,2.988281 -0.79688,0.79691 -1.79298,1.195347 -2.98828,1.195313 -1.19532,3.4e-5 -2.191411,-0.398403 -2.988279,-1.195313 -0.79688,-0.796838 -1.195317,-1.792931 -1.195312,-2.988281 m 0.316406,37.441406 7.031255,0 -0.84375,-0.632812 c -0.0469,-0.04687 -0.0938,-0.08203 -0.14063,-0.105469 l -0.45703,-0.351563 c -0.32814,-0.328122 -0.50392,-0.773434 -0.52734,-1.335937 l 0,-0.703125 0,-0.351563 0,-22.886718 -5.76563,0.632812 1.371094,0.984375 c 0.02343,2.6e-5 0.07031,0.03518 0.140625,0.105469 l 0.457031,0.351562 c 0.234368,0.164088 0.386712,0.410182 0.457031,0.738282 0.07031,0.304712 0.105462,0.855493 0.105469,1.652343 l 0,18.421875 c -7e-6,0.960942 -0.04688,1.558598 -0.140625,1.792969 -0.09376,0.234378 -0.375007,0.550784 -0.84375,0.949219 -6e-6,2e-6 -0.02344,0.01172 -0.07031,0.03516 -0.02344,0.02344 -0.03516,0.04688 -0.03516,0.07031 l -0.738281,0.632812 M 95.58734,14.199636 c -0.82032,0.04692 -1.53516,0.398479 -2.144531,1.054687 -0.585944,0.632853 -0.878912,1.371134 -0.878906,2.214844 -6e-6,0.843788 0.304681,1.593787 0.914062,2.25 0.609365,0.656286 1.312495,0.984411 2.109375,0.984375 0.51562,3.6e-5 0.77343,-0.269495 0.77344,-0.808594 0.0234,-0.421838 0.0352,-1.277306 0.0352,-2.566406 -10e-6,-1.242147 -0.0117,-2.039022 -0.0352,-2.390625 -0.0235,-0.468708 -0.28126,-0.714802 -0.77344,-0.738281"
       id="path3636"
       style="font-size:72px;font-style:normal;font-variant:normal;font-weight:normal;font-stretch:normal;text-align:start;line-height:125%;writing-mode:lr-tb;text-anchor:start;opacity:0.98999999;fill:#000000;fill-opacity:1;stroke:none;font-family:Academy Engraved LET;-inkscape-font-specification:Academy Engraved LET" />
    <path
       d="m 104.94281,56.457447 0,-0.949219 c 1.59375,-0.281248 2.68359,-0.82031 3.26953,-1.617187 0.58593,-0.820309 0.8789,-2.214839 0.87891,-4.183594 l 0,-33.960937 c -1e-5,-1.968708 -0.3047,-3.363238 -0.91406,-4.183594 -0.58595,-0.843704 -1.66407,-1.382766 -3.23438,-1.6171877 l 0,-0.7734375 11.32031,-1.3007812 0,41.8359374 c -1e-5,1.945317 0.28124,3.328128 0.84375,4.148438 0.58593,0.820314 1.67577,1.371095 3.26953,1.652343 l 0,0.949219 -15.43359,0 m 3.51563,-1.546875 7.03125,0 -0.84375,-0.632812 c -0.0469,-0.04687 -0.0938,-0.08203 -0.14063,-0.105469 l -0.45703,-0.351563 c -0.32814,-0.328122 -0.50392,-0.773434 -0.52734,-1.335937 l 0,-0.703125 0,-0.351563 0,-42.0820309 -5.76563,0.6328125 1.37109,0.9843754 c 0.0234,4.5e-5 0.0703,0.0352 0.14063,0.105468 l 0.45703,0.351563 c 0.23437,0.164107 0.38671,0.410201 0.45703,0.738281 0.0703,0.304732 0.10546,0.855512 0.10547,1.652344 l 0,37.617187 c -10e-6,0.960942 -0.0469,1.558598 -0.14062,1.792969 -0.0938,0.234378 -0.37501,0.550784 -0.84375,0.949219 -10e-6,2e-6 -0.0234,0.01172 -0.0703,0.03516 -0.0234,0.02344 -0.0352,0.04688 -0.0352,0.07031 l -0.73828,0.632812"
       id="path3638"
       style="font-size:72px;font-style:normal;font-variant:normal;font-weight:normal;font-stretch:normal;text-align:start;line-height:125%;writing-mode:lr-tb;text-anchor:start;opacity:0.98999999;fill:#000000;fill-opacity:1;stroke:none;font-family:Academy Engraved LET;-inkscape-font-specification:Academy Engraved LET" />
    <path
       d="m 134.23187,55.859791 -10.33593,-21.304688 -0.35157,-0.738281 c -0.96094,-1.992163 -1.79297,-3.339818 -2.49609,-4.042969 -0.67969,-0.703097 -1.54688,-1.089816 -2.60156,-1.160156 l 0,-0.949219 15.53906,0 0,0.949219 c -1.21876,0.140653 -2.08595,0.386746 -2.60156,0.738281 -0.51564,0.35159 -0.77345,0.890652 -0.77344,1.617188 -1e-5,0.585962 0.29296,1.500024 0.87891,2.742187 l 6.25781,13.5 5.48437,-13.324218 c 0.60935,-1.499976 0.91404,-2.624975 0.91407,-3.375 -3e-5,-0.632786 -0.25784,-1.089817 -0.77344,-1.371094 -0.51565,-0.281223 -1.39456,-0.457004 -2.63672,-0.527344 l 0,-0.949219 8.71875,0 0,0.949219 c -1.1719,0.25784 -2.00393,0.585965 -2.49609,0.984375 -0.46878,0.398464 -0.98441,1.218776 -1.54688,2.460938 l -0.63281,1.371093 c -0.0469,0.140648 -0.0938,0.246117 -0.14063,0.316407 -0.0235,0.0469 -0.0586,0.140647 -0.10547,0.28125 l -10.82812,26.367187 c -0.4922,1.218745 -1.03126,2.273431 -1.61719,3.164063 -0.56251,0.914054 -1.17188,1.546866 -1.82812,1.898437 -0.63283,0.374991 -1.34767,0.56249 -2.14453,0.5625 -1.40626,-1e-5 -2.61329,-0.574228 -3.6211,-1.722656 -1.00781,-1.125007 -1.51172,-2.531256 -1.51172,-4.21875 0,-1.171878 0.29297,-2.121095 0.87891,-2.847656 0.60937,-0.703126 1.40624,-1.054688 2.39062,-1.054688 0.79687,0 1.40625,0.210938 1.82813,0.632813 0.4453,0.421874 0.70311,1.031248 0.77344,1.828125 l 0.10547,1.230468 c 0.0937,1.429683 0.56249,2.144526 1.40625,2.144532 0.51561,-6e-6 0.99608,-0.304693 1.4414,-0.914063 0.4453,-0.585942 0.96093,-1.61719 1.54688,-3.09375 l 0.8789,-2.144531 m -3.72656,8.472656 -0.31641,0 c -1.24219,-8e-6 -2.15625,-0.339851 -2.74218,-1.019531 -0.56251,-0.679694 -0.84376,-1.746099 -0.84375,-3.199219 l 0.0351,-0.984375 c 0,-0.843752 -0.38672,-1.265626 -1.16015,-1.265625 -0.93751,-1e-6 -1.40626,0.738279 -1.40625,2.214844 -1e-5,1.406245 0.39843,2.589837 1.19531,3.550781 0.82031,0.960929 1.8164,1.441398 2.98828,1.441406 0.67968,-8e-6 1.42968,-0.246102 2.25,-0.738281 m 6.08203,-13.394531 -8.22656,-17.085938 c -0.51563,-1.101538 -0.77345,-2.003881 -0.77344,-2.707031 -10e-6,-1.007786 0.46874,-1.816379 1.40625,-2.425781 l -7.80469,0 c 0.65625,0.421902 1.19531,0.914089 1.61719,1.476562 0.44531,0.562526 0.9375,1.394556 1.47656,2.496094 l 10.72266,22.148438 1.58203,-3.902344"
       id="path3640"
       style="font-size:72px;font-style:normal;font-variant:normal;font-weight:normal;font-stretch:normal;text-align:start;line-height:125%;writing-mode:lr-tb;text-anchor:start;opacity:0.98999999;fill:#000000;fill-opacity:1;stroke:none;font-family:Academy Engraved LET;-inkscape-font-specification:Academy Engraved LET" />
    <path
       d="m 200.85687,8.4691658 1.08985,13.0781252 -1.125,0 c -0.70318,-2.414025 -1.66411,-4.499961 -2.88282,-6.257813 -1.19535,-1.757769 -2.6016,-3.105424 -4.21875,-4.042968 -1.59378,-0.960892 -3.26956,-1.44136 -5.02734,-1.4414067 -1.38285,4.67e-5 -2.58988,0.2930147 -3.62109,0.8789067 -1.00785,0.562545 -1.75785,1.3477 -2.25,2.355468 -0.46878,0.96098 -0.70316,2.507854 -0.70313,4.640625 l 0,28.054688 c -3e-5,2.085946 0.1406,3.621101 0.42188,4.605469 0.28122,0.960942 0.82028,1.804691 1.61718,2.53125 1.42966,1.289064 3.51559,2.121095 6.25782,2.496093 l 0,1.089844 -24.78516,0 0,-1.089844 c 3.04686,-0.421873 5.27342,-1.38281 6.67969,-2.882812 0.63279,-0.679683 1.06638,-1.511713 1.30078,-2.496094 0.23435,-0.984367 0.35154,-2.402335 0.35156,-4.253906 l 0,-28.054688 c -2e-5,-2.320271 -0.31643,-4.007769 -0.94922,-5.0625 -0.4922,-0.867142 -1.23048,-1.546829 -2.21484,-2.039062 -0.98439,-0.515579 -2.12111,-0.773391 -3.41016,-0.7734377 -2.64845,4.67e-5 -5.07423,1.0547327 -7.27734,3.1640627 -2.17969,2.085979 -3.8086,4.945351 -4.88672,8.578125 l -1.08984,0 1.08984,-13.0781252 45.63281,0 m -2.67187,1.3007813 -5.09766,0 c 1.24215,0.5156709 2.28512,1.1133269 3.12891,1.7929689 0.8437,0.656294 1.72261,1.617231 2.63672,2.882812 L 198.185,9.7699471 m -26.19141,44.8945309 10.30078,0 -1.37109,-1.019531 c -0.84378,-0.632809 -1.37112,-1.113277 -1.58203,-1.441406 -0.21097,-0.328121 -0.31643,-0.843745 -0.31641,-1.546875 l 0,-1.160156 c -2e-5,-0.187493 -0.0117,-0.316399 -0.0352,-0.386719 -3e-5,-0.07031 -3e-5,-0.140618 0,-0.210938 l 0,-32.871093 c -3e-5,-0.07027 -3e-5,-0.140585 0,-0.210938 0.0234,-0.07027 0.0351,-0.199178 0.0352,-0.386719 l 0,-1.160156 c -2e-5,-0.703082 0.12888,-1.242144 0.38672,-1.617187 0.25779,-0.398394 0.76169,-0.855425 1.51172,-1.371094 l 2.00391,-1.4765627 -10.82813,0 1.65234,1.4765627 c 0.58592,0.515669 0.98436,0.996138 1.19532,1.441406 0.21091,0.421918 0.31638,0.937543 0.3164,1.546875 l 0,1.160156 c 0.0234,0.210979 0.0351,0.410197 0.0352,0.597657 l 0,32.871093 c -2e-5,0.187508 -0.0117,0.386726 -0.0352,0.597657 l 0,1.160156 c -2e-5,0.70313 -0.11721,1.230473 -0.35156,1.582031 -0.21096,0.351566 -0.71486,0.820316 -1.51172,1.40625 l -1.40625,1.019531 M 156.38422,9.7699471 155.89203,14.937916 c 1.00781,-1.47652 1.86328,-2.554644 2.56641,-3.234375 0.70311,-0.679642 1.61718,-1.324173 2.74218,-1.9335939 l -4.8164,0"
       id="path3642"
       style="font-size:72px;font-style:normal;font-variant:normal;font-weight:normal;font-stretch:normal;text-align:start;line-height:125%;writing-mode:lr-tb;text-anchor:start;opacity:0.98999999;fill:#000000;fill-opacity:1;stroke:none;font-family:Academy Engraved LET;-inkscape-font-specification:Academy Engraved LET" />
    <path
       d="m 192.44281,56.457447 0,-0.949219 c 1.59375,-0.281248 2.68359,-0.82031 3.26953,-1.617187 0.58593,-0.820309 0.8789,-2.214839 0.87891,-4.183594 l 0,-14.765625 c -1e-5,-1.968726 -0.3047,-3.363256 -0.91406,-4.183594 -0.58595,-0.843723 -1.66407,-1.382785 -3.23438,-1.617187 l 0,-0.773438 11.32031,-1.300781 0,22.640625 c -10e-6,1.945317 0.28124,3.328128 0.84375,4.148438 0.58593,0.820314 1.67577,1.371095 3.26953,1.652343 l 0,0.949219 -15.43359,0 m 3.51563,-1.546875 7.03125,0 -0.84375,-0.632812 c -0.0469,-0.04687 -0.0938,-0.08203 -0.14063,-0.105469 l -0.45703,-0.351563 c -0.32814,-0.328122 -0.50392,-0.773434 -0.52734,-1.335937 l 0,-0.703125 0,-0.351563 0,-22.886718 -5.76563,0.632812 1.37109,0.984375 c 0.0234,2.6e-5 0.0703,0.03518 0.14063,0.105469 l 0.45703,0.351562 c 0.23437,0.164088 0.38671,0.410182 0.45703,0.738282 0.0703,0.304712 0.10546,0.855493 0.10547,1.652343 l 0,18.421875 c -1e-5,0.960942 -0.0469,1.558598 -0.14062,1.792969 -0.0938,0.234378 -0.37501,0.550784 -0.84375,0.949219 -1e-5,2e-6 -0.0234,0.01172 -0.0703,0.03516 -0.0234,0.02344 -0.0352,0.04688 -0.0351,0.07031 l -0.73828,0.632812"
       id="path3644"
       style="font-size:72px;font-style:normal;font-variant:normal;font-weight:normal;font-stretch:normal;text-align:start;line-height:125%;writing-mode:lr-tb;text-anchor:start;opacity:0.98999999;fill:#000000;fill-opacity:1;stroke:none;font-family:Academy Engraved LET;-inkscape-font-specification:Academy Engraved LET" />
    <path
       d="m 241.20844,35.469166 c 0.0937,0.820332 0.14059,1.6758 0.14062,2.566406 l 0,11.671875 c -3e-5,1.945317 0.29293,3.328128 0.87891,4.148438 0.60934,0.820314 1.69918,1.371095 3.26953,1.652343 l 0,0.949219 -15.4336,0 0,-0.949219 c 1.59373,-0.281248 2.67185,-0.832029 3.23438,-1.652343 0.58591,-0.82031 0.87888,-2.203121 0.87891,-4.148438 l 0,-11.882812 c -3e-5,-2.554667 -0.16409,-4.324196 -0.49219,-5.308594 -0.30472,-1.054663 -0.84378,-1.886693 -1.61719,-2.496094 -0.77346,-0.609348 -1.6758,-0.914035 -2.70703,-0.914062 -1.47658,2.7e-5 -2.88283,0.468776 -4.21875,1.40625 -1.33596,0.937525 -2.94142,2.566429 -4.81641,4.886718 l 0,14.308594 c -10e-6,1.945317 0.28124,3.328128 0.84375,4.148438 0.58593,0.820314 1.67577,1.371095 3.26953,1.652343 l 0,0.949219 -15.43359,0 0,-0.949219 c 1.59375,-0.281248 2.68359,-0.82031 3.26953,-1.617187 0.58593,-0.820309 0.8789,-2.214839 0.87891,-4.183594 l 0,-14.765625 c -1e-5,-1.968726 -0.3047,-3.363256 -0.91406,-4.183594 -0.58595,-0.843723 -1.66407,-1.382785 -3.23438,-1.617187 l 0,-0.773438 11.32031,-1.300781 0,6.609375 c 1.89843,-2.367162 3.72655,-4.078098 5.48438,-5.132812 1.78123,-1.078096 3.7031,-1.617158 5.76562,-1.617188 2.3906,3e-5 4.38279,0.621123 5.97657,1.863281 1.61715,1.218777 2.73043,2.964869 3.33984,5.238282 1.47653,-1.781226 2.74215,-3.152319 3.79687,-4.113282 2.20309,-1.992159 4.75777,-2.988251 7.66407,-2.988281 1.80464,3e-5 3.45698,0.410185 4.95703,1.230469 1.52338,0.796902 2.70698,1.93362 3.55078,3.410156 0.91401,1.570336 1.37104,3.726584 1.37109,6.46875 l 0,11.671875 c -5e-5,1.945317 0.2812,3.328128 0.84375,4.148438 0.58588,0.820314 1.67573,1.371095 3.26953,1.652343 l 0,0.949219 -15.43359,0 0,-0.949219 c 1.61714,-0.281248 2.70698,-0.832029 3.26953,-1.652343 0.58589,-0.82031 0.87886,-2.203121 0.87891,-4.148438 l 0,-11.882812 c -5e-5,-2.578104 -0.16411,-4.347634 -0.49219,-5.308594 -0.30473,-1.0781 -0.8438,-1.910131 -1.61719,-2.496094 -0.75004,-0.609348 -1.62895,-0.914035 -2.63672,-0.914062 -1.4766,2.7e-5 -2.92972,0.503933 -4.35937,1.511718 -1.40629,0.9844 -2.98832,2.601586 -4.74609,4.851563 m -7.66407,19.441406 7.03125,0 -0.80859,-0.632812 c -0.0469,-0.02344 -0.0938,-0.05859 -0.14063,-0.105469 l -0.45703,-0.351563 c -0.35159,-0.351559 -0.52737,-0.796871 -0.52734,-1.335937 l -0.0352,-0.703125 0,-0.351563 0,-13.429687 c -0.0235,-3.234354 -0.53909,-5.554664 -1.54687,-6.960938 -0.65628,-0.937473 -1.50003,-1.664035 -2.53125,-2.179687 -1.03128,-0.539035 -2.13284,-0.808566 -3.30469,-0.808594 -0.14065,2.8e-5 -0.25784,0.01175 -0.35156,0.03516 -0.0703,2.9e-5 -0.21096,0.01175 -0.42188,0.03516 -0.18752,2.8e-5 -0.38674,0.01175 -0.59765,0.03516 2.10935,0.304715 3.55075,1.148464 4.32422,2.53125 0.79684,1.359399 1.19528,3.726584 1.19531,7.101562 l 0,13.640625 c -3e-5,0.960942 -0.0469,1.558598 -0.14063,1.792969 -0.0703,0.234378 -0.33987,0.550784 -0.80859,0.949219 -0.0469,0.04688 -0.0821,0.07032 -0.10547,0.07031 -3e-5,3e-6 -0.0118,0.01172 -0.0352,0.03516 l -0.73828,0.632812 m -21.02343,0 7.03125,0 -0.84375,-0.632812 c -0.0469,-0.04687 -0.0938,-0.08203 -0.14063,-0.105469 L 218.1107,53.82074 c -0.32814,-0.328122 -0.50392,-0.773434 -0.52734,-1.335937 l 0,-0.703125 0,-0.351563 0,-22.886718 -5.76563,0.632812 1.37109,0.984375 c 0.0234,2.6e-5 0.0703,0.03518 0.14063,0.105469 l 0.45703,0.351562 c 0.23437,0.164088 0.38671,0.410182 0.45703,0.738282 0.0703,0.304712 0.10546,0.855493 0.10547,1.652343 l 0,18.421875 c -1e-5,0.960942 -0.0469,1.558598 -0.14062,1.792969 -0.0938,0.234378 -0.37501,0.550784 -0.84375,0.949219 -1e-5,2e-6 -0.0234,0.01172 -0.0703,0.03516 -0.0234,0.02344 -0.0352,0.04688 -0.0351,0.07031 l -0.73828,0.632812 m 41.90625,0 7.03125,0 -0.84375,-0.632812 c -6e-5,-0.02344 -0.0118,-0.04687 -0.0352,-0.07031 -0.0235,-0.02343 -0.0469,-0.03515 -0.0703,-0.03516 l -0.45703,-0.351563 c -0.35162,-0.328122 -0.5274,-0.773434 -0.52735,-1.335937 l -0.0351,-0.703125 0,-0.351563 -0.0352,-13.429687 c -5e-5,-1.78123 -0.10552,-3.17576 -0.31641,-4.183594 -0.21099,-1.007789 -0.60942,-1.933569 -1.19531,-2.777344 -1.45317,-1.968722 -3.38677,-2.953096 -5.80078,-2.953125 -0.18755,2.9e-5 -0.6563,0.02347 -1.40625,0.07031 2.10933,0.304715 3.55073,1.148464 4.32422,2.53125 0.79682,1.359399 1.19526,3.726584 1.19531,7.101562 l 0,13.640625 c -5e-5,0.960942 -0.0469,1.558598 -0.14062,1.792969 -0.0704,0.234378 -0.3399,0.550784 -0.8086,0.949219 -0.0469,0.04688 -0.0821,0.07032 -0.10547,0.07031 -5e-5,3e-6 -0.0118,0.01172 -0.0351,0.03516 l -0.73828,0.632812"
       id="path3646"
       style="font-size:72px;font-style:normal;font-variant:normal;font-weight:normal;font-stretch:normal;text-align:start;line-height:125%;writing-mode:lr-tb;text-anchor:start;opacity:0.98999999;fill:#000000;fill-opacity:1;stroke:none;font-family:Academy Engraved LET;-inkscape-font-specification:Academy Engraved LET" />
    <path
       d="m 273.38422,40.074635 0,0.773437 c -1e-5,2.789075 0.41014,5.238292 1.23047,7.347656 0.8203,2.085944 1.98045,3.70313 3.48046,4.851563 1.52343,1.14844 3.30467,1.722658 5.34375,1.722656 1.07811,2e-6 2.15623,-0.175779 3.23438,-0.527344 1.10154,-0.374997 2.17966,-0.90234 3.23437,-1.582031 1.0781,-0.679683 2.28513,-1.64062 3.6211,-2.882812 l 0.70312,0.949218 c -2.41409,2.343754 -4.71096,4.019533 -6.89062,5.027344 -2.15627,1.007812 -4.57033,1.511718 -7.24219,1.511719 -2.78908,-1e-6 -5.29689,-0.609375 -7.52344,-1.828125 -2.20313,-1.218748 -3.91406,-2.941402 -5.13281,-5.167969 -1.21875,-2.226554 -1.82813,-4.734364 -1.82812,-7.523437 -10e-6,-2.929671 0.66796,-5.613262 2.0039,-8.050782 1.35937,-2.437475 3.19921,-4.34763 5.51953,-5.730468 2.34374,-1.382784 4.95702,-2.07419 7.83985,-2.074219 2.46091,2.9e-5 4.71091,0.503935 6.75,1.511719 2.06247,1.007839 3.66794,2.425806 4.8164,4.253906 1.21872,1.875022 1.89841,4.347676 2.03907,7.417969 l -21.19922,0 m 0,-1.230469 14.02734,0 c -0.0235,-3.164042 -0.33987,-5.437477 -0.94922,-6.820313 -0.53908,-1.265599 -1.31252,-2.238254 -2.32031,-2.917968 -1.00783,-0.703097 -2.13283,-1.05466 -3.375,-1.054688 -4.50001,2.8e-5 -6.96095,3.597681 -7.38281,10.792969 m 8.22656,17.367187 c -1.66408,-0.210937 -3.00002,-0.527343 -4.00781,-0.949218 -1.00783,-0.421874 -1.9922,-1.078123 -2.95313,-1.96875 -1.4297,-1.312496 -2.54298,-3.03515 -3.33984,-5.167969 -0.79688,-2.15624 -1.19532,-4.499987 -1.19531,-7.03125 -10e-6,-1.757796 0.16405,-3.374981 0.49218,-4.851563 0.35156,-1.476541 0.8789,-2.800758 1.58203,-3.972656 0.72656,-1.17185 1.69921,-2.28513 2.91797,-3.339844 -2.67188,1.453151 -4.72266,3.375024 -6.15234,5.765625 -1.42969,2.390645 -2.14454,5.062517 -2.14453,8.015625 -10e-6,2.531262 0.57421,4.839853 1.72265,6.925782 1.14844,2.062504 2.74218,3.67969 4.78125,4.851562 2.06249,1.171876 4.33593,1.757813 6.82032,1.757813 0.56248,0 1.05467,-0.01172 1.47656,-0.03516 m 10.05469,-17.367187 c -0.0703,-1.734356 -0.38675,-3.304667 -0.94922,-4.710938 -0.56253,-1.406226 -1.34768,-2.589819 -2.35547,-3.550781 -0.9844,-0.984348 -2.15627,-1.687472 -3.51563,-2.109375 1.35936,1.078152 2.33201,2.355494 2.91797,3.832031 0.60935,1.476585 0.91404,3.328146 0.91407,5.554688 -3e-5,0.375018 -0.0118,0.703143 -0.0352,0.984375 l 3.02344,0"
       id="path3648"
       style="font-size:72px;font-style:normal;font-variant:normal;font-weight:normal;font-stretch:normal;text-align:start;line-height:125%;writing-mode:lr-tb;text-anchor:start;opacity:0.98999999;fill:#000000;fill-opacity:1;stroke:none;font-family:Academy Engraved LET;-inkscape-font-specification:Academy Engraved LET" />
    <path
       d="m 315.01312,28.648853 1.47657,8.15625 -0.94922,0 c -0.70315,-2.671852 -1.81643,-4.769507 -3.33985,-6.292968 -1.50001,-1.546848 -3.23439,-2.320285 -5.20312,-2.320313 -1.17189,2.8e-5 -2.15626,0.35159 -2.95313,1.054688 -0.77344,0.679714 -1.16016,1.523463 -1.16015,2.53125 -1e-5,0.937523 0.30467,1.71096 0.91406,2.320312 0.6328,0.585959 2.03905,1.476583 4.21875,2.671875 3.56248,1.94533 6.04685,3.480485 7.45312,4.605469 2.22654,1.710951 3.33982,3.937511 3.33985,6.679687 -3e-5,1.38282 -0.26956,2.625006 -0.8086,3.726563 -0.53908,1.101566 -1.33596,2.062502 -2.39062,2.882812 -1.05471,0.820314 -2.30861,1.441407 -3.76172,1.863282 -1.45314,0.445312 -3.03517,0.667968 -4.74609,0.667968 -2.83595,0 -6.23439,-0.644531 -10.19532,-1.933593 l -0.84375,-10.6875 0.84375,0 c 2.10937,7.289067 5.39062,10.933594 9.84375,10.933593 1.5703,10e-7 2.85936,-0.468748 3.86719,-1.40625 1.03123,-0.937496 1.54686,-2.167964 1.54688,-3.691406 -2e-5,-1.546867 -0.59768,-2.789054 -1.79297,-3.726562 -0.70314,-0.56249 -2.43752,-1.605458 -5.20313,-3.128907 -2.76563,-1.523423 -4.66407,-2.718734 -5.69531,-3.585937 -1.66407,-1.382795 -2.4961,-3.140606 -2.49609,-5.273438 -1e-5,-2.296851 0.89062,-4.16013 2.67187,-5.589843 1.80468,-1.453097 4.12499,-2.179658 6.96094,-2.179688 2.24998,3e-5 5.05076,0.574248 8.40234,1.722656 m -5.51953,27.210938 c 2.10936,-0.281249 3.7617,-1.01953 4.95703,-2.214844 1.19529,-1.195308 1.79295,-2.718744 1.79297,-4.570312 -2e-5,-1.828116 -0.67971,-3.445302 -2.03906,-4.851563 -1.17189,-1.242174 -3.43361,-2.742172 -6.78516,-4.5 -2.76563,-1.499982 -4.62891,-2.707012 -5.58984,-3.621094 -0.93751,-0.914041 -1.40626,-1.968727 -1.40625,-3.164062 -10e-6,-1.804662 1.01952,-3.41013 3.05859,-4.816406 -1.71094,0.562527 -3.03516,1.406276 -3.97265,2.53125 -0.91407,1.125024 -1.3711,2.425804 -1.3711,3.902343 0,1.734395 0.60937,3.152363 1.82813,4.253907 0.93749,0.867204 2.82421,2.097671 5.66015,3.691406 3.0703,1.664075 5.02733,2.882823 5.8711,3.65625 1.24217,1.125009 1.86326,2.531258 1.86328,4.21875 -2e-5,2.648441 -1.28908,4.476564 -3.86719,5.484375 m -11.5664,-1.511719 0.63281,0.210938 c 0.91405,0.351564 1.96874,0.66797 3.16406,0.949218 l 0.77344,0.175782 c -1.10157,-0.726561 -2.00391,-1.453123 -2.70703,-2.179688 -0.70313,-0.749996 -1.44141,-1.746089 -2.21485,-2.988281 l 0.35157,3.832031"
       id="path3650"
       style="font-size:72px;font-style:normal;font-variant:normal;font-weight:normal;font-stretch:normal;text-align:start;line-height:125%;writing-mode:lr-tb;text-anchor:start;opacity:0.98999999;fill:#000000;fill-opacity:1;stroke:none;font-family:Academy Engraved LET;-inkscape-font-specification:Academy Engraved LET" />
  </g>
</svg>
